<?xml version="1.0" standalone="no"?>
<!DOCTYPE svg PUBLIC "-//W3C//DTD SVG 20010904//EN"
 "http://www.w3.org/TR/2001/REC-SVG-20010904/DTD/svg10.dtd">
<svg version="1.0" xmlns="http://www.w3.org/2000/svg"
 width="16.000000pt" height="16.000000pt" viewBox="0 0 16.000000 16.000000"
 preserveAspectRatio="xMidYMid meet">
<metadata>
Created by potrace 1.11, written by Peter Selinger 2001-2013
</metadata>
<g transform="translate(0.000000,16.000000) scale(0.002051,-0.002051)"
fill="#000000" stroke="none">
<path d="M3728 7795 c-2 -1 -46 -5 -98 -9 -52 -3 -108 -8 -125 -10 -16 -2 -57
-7 -90 -11 -241 -27 -505 -88 -770 -177 -455 -153 -910 -414 -1295 -743 -59
-50 -353 -347 -404 -407 -430 -511 -715 -1084 -850 -1713 -27 -125 -52 -278
-62 -380 -3 -33 -10 -91 -14 -130 -9 -74 -6 -632 3 -675 3 -14 8 -52 11 -85 4
-33 8 -71 10 -85 3 -14 10 -59 16 -100 14 -88 16 -99 30 -165 6 -27 12 -60 15
-72 2 -13 16 -67 30 -120 273 -1022 924 -1869 1842 -2396 71 -41 160 -89 198
-107 187 -87 229 -106 345 -150 216 -81 400 -133 635 -179 153 -30 188 -36
285 -46 30 -3 89 -10 130 -15 75 -9 659 -6 715 4 17 2 55 8 85 11 122 14 323
51 468 86 679 166 1321 528 1816 1025 56 56 180 188 211 225 401 478 674 1009
818 1594 32 126 39 163 53 245 3 14 9 48 14 75 5 28 12 79 16 115 4 36 8 74
10 85 25 205 25 589 -1 840 -54 517 -230 1060 -490 1509 -336 582 -807 1063
-1372 1404 -155 93 -410 221 -553 278 -269 105 -609 200 -829 230 -19 2 -46 6
-60 9 -14 2 -48 7 -76 10 -27 3 -66 8 -85 10 -98 13 -183 17 -372 19 -114 2
-209 2 -210 1z m328 -376 c8 -7 14 -6 19 1 3 6 9 8 13 6 4 -2 54 -7 112 -11
57 -4 113 -9 125 -11 11 -2 31 -6 45 -9 14 -2 45 -7 70 -10 97 -11 383 -74
408 -89 5 -3 24 -8 43 -11 18 -3 36 -9 39 -13 3 -4 14 -8 25 -10 23 -3 160
-48 190 -62 11 -5 49 -21 85 -36 36 -14 83 -34 105 -44 22 -9 47 -20 55 -23 8
-4 22 -11 30 -16 8 -5 44 -24 80 -42 36 -18 101 -53 145 -79 44 -25 91 -53
105 -61 14 -7 27 -16 30 -19 7 -7 91 -63 115 -76 11 -6 19 -16 17 -23 -1 -7 2
-10 8 -6 11 7 87 -48 245 -181 153 -127 218 -191 209 -205 -4 -8 -3 -9 4 -5
12 7 28 -8 112 -100 50 -55 73 -82 140 -164 25 -30 48 -56 53 -58 4 -2 7 -8 7
-14 0 -5 6 -15 13 -23 6 -7 19 -22 29 -33 26 -32 188 -280 195 -300 4 -9 9
-19 12 -22 24 -20 169 -320 229 -470 46 -117 90 -243 97 -282 2 -9 8 -25 13
-35 5 -10 8 -28 7 -40 -1 -13 1 -23 5 -23 6 0 56 -202 65 -265 2 -16 9 -57 14
-90 6 -33 13 -82 17 -110 3 -27 7 -61 9 -75 22 -160 23 -627 1 -745 -2 -11 -7
-46 -11 -79 -3 -32 -8 -68 -10 -80 -2 -11 -6 -37 -9 -56 -8 -52 -16 -93 -21
-110 -3 -8 -7 -33 -11 -55 -3 -22 -8 -43 -11 -47 -2 -5 -6 -16 -8 -25 -20
-101 -61 -237 -112 -378 -40 -109 -117 -290 -125 -293 -5 -2 -8 -8 -8 -14 0
-11 -41 -99 -50 -108 -3 -3 -13 -23 -23 -45 -30 -64 -146 -253 -211 -344 -34
-45 -68 -93 -76 -105 -16 -24 -78 -104 -95 -122 -5 -6 -30 -36 -55 -65 -87
-105 -308 -321 -321 -313 -7 4 -10 3 -5 -4 4 -6 -35 -45 -91 -92 -114 -93
-108 -89 -153 -120 -19 -14 -40 -30 -47 -37 -7 -6 -29 -21 -50 -34 -21 -13
-40 -26 -43 -29 -6 -7 -117 -77 -195 -122 -119 -71 -403 -208 -427 -208 -8 0
-18 -4 -23 -9 -9 -8 -174 -70 -200 -75 -5 -1 -14 -4 -20 -7 -10 -6 -55 -18
-65 -18 -3 0 -17 -4 -32 -10 -33 -12 -241 -66 -288 -75 -19 -3 -46 -8 -60 -11
-57 -12 -79 -15 -150 -25 -75 -9 -118 -14 -240 -26 -72 -7 -483 -7 -515 -1
-11 3 -58 8 -105 12 -47 4 -94 9 -105 11 -11 3 -38 7 -60 10 -253 32 -631 140
-861 245 -198 89 -453 223 -474 248 -3 3 -16 12 -30 19 -30 16 -252 174 -308
220 -299 246 -552 524 -729 797 -25 39 -56 86 -68 105 -129 199 -319 619 -370
816 -3 10 -23 87 -45 171 -43 166 -70 308 -85 453 -3 25 -8 74 -12 110 -15
133 -8 598 11 710 3 14 7 48 11 75 5 45 12 89 30 180 4 17 8 39 10 50 2 11 6
31 9 45 3 14 9 40 12 57 3 18 9 31 13 29 3 -2 7 12 8 33 1 31 85 307 112 366
5 11 21 52 37 90 61 154 189 403 265 518 21 32 39 61 39 63 0 8 54 79 63 82 4
2 7 8 7 13 0 19 102 149 112 143 7 -5 8 -2 3 6 -4 7 -3 15 2 19 5 3 18 18 29
33 86 111 295 327 425 439 119 102 123 106 224 180 379 280 802 478 1255 588
132 32 149 35 245 51 134 21 163 25 310 36 50 4 91 8 93 9 9 8 339 2 348 -6z"/>
<path d="M3833 6534 c-18 -7 -42 -31 -56 -55 l-25 -42 -1 -671 c0 -369 -1
-705 -1 -748 l-1 -76 -52 -7 c-28 -4 -54 -7 -56 -5 -2 1 -7 -2 -10 -7 -3 -5
-26 -15 -51 -22 -25 -7 -63 -22 -84 -32 -22 -10 -46 -19 -53 -19 -7 0 -13 -5
-13 -11 0 -5 -4 -7 -10 -4 -5 3 -10 1 -10 -4 0 -6 -7 -11 -15 -11 -8 0 -15 -5
-15 -11 0 -5 -4 -7 -10 -4 -5 3 -10 2 -10 -2 0 -5 -13 -17 -30 -26 -16 -10
-30 -16 -30 -13 0 5 -28 -21 -126 -115 -27 -27 -54 -46 -59 -42 -4 4 -5 3 -2
-3 3 -6 -2 -20 -12 -31 -10 -10 -24 -29 -30 -41 -6 -12 -19 -22 -29 -22 -12 0
-13 -3 -4 -8 9 -6 7 -14 -8 -30 -12 -12 -17 -22 -13 -22 4 0 -1 -7 -11 -15
-11 -8 -17 -15 -13 -15 3 0 -8 -28 -25 -62 -18 -35 -33 -69 -34 -76 -1 -8 -6
-21 -10 -30 -4 -9 -9 -26 -11 -37 -2 -11 -6 -27 -10 -35 -9 -22 -10 -27 -12
-56 0 -14 -5 -23 -10 -19 -5 3 -13 0 -17 -6 -5 -8 -3 -9 5 -4 9 5 12 0 9 -16
-1 -12 -9 -24 -17 -27 -9 -3 -11 0 -6 8 6 9 4 11 -6 4 -23 -14 -73 -11 -87 5
-11 14 -11 14 -6 0 5 -15 -53 -16 -695 -17 -651 0 -703 -1 -729 -17 -53 -34
-73 -65 -78 -120 -6 -66 37 -134 97 -153 22 -7 149 -10 361 -9 181 1 328 -2
328 -6 0 -5 5 -5 11 -1 13 8 793 7 818 -1 10 -3 18 -11 18 -18 1 -29 14 -90
23 -108 6 -10 7 -19 3 -19 -4 0 -2 -5 5 -12 7 -7 12 -20 12 -29 0 -9 7 -29 14
-45 8 -15 13 -31 10 -36 -3 -4 -1 -8 3 -8 14 0 65 -109 57 -121 -5 -8 -3 -9 5
-5 18 11 43 -25 29 -42 -8 -9 -7 -11 5 -6 10 3 20 -3 28 -18 7 -13 21 -31 31
-40 11 -9 17 -22 13 -27 -3 -7 0 -8 9 -5 10 4 16 1 16 -9 0 -8 7 -17 15 -21 8
-3 15 -13 15 -23 0 -14 2 -15 9 -4 6 9 10 10 16 2 4 -7 1 -20 -7 -29 -12 -15
-11 -16 4 -4 15 12 22 9 57 -19 22 -17 38 -35 36 -39 -2 -4 1 -7 8 -7 7 -1 57
-26 112 -57 55 -31 108 -56 117 -56 10 0 27 -10 39 -22 12 -13 19 -17 15 -10
-4 6 -2 12 3 12 6 0 11 -5 11 -11 0 -5 5 -7 11 -4 5 4 22 2 37 -4 15 -6 43
-13 62 -15 33 -3 35 -6 37 -42 1 -22 3 -361 4 -754 1 -483 5 -723 12 -740 41
-97 167 -126 241 -56 49 46 48 26 48 762 0 513 3 694 12 694 7 0 7 3 1 8 -5 4
-10 32 -10 62 l0 55 55 12 c40 9 58 9 68 1 10 -9 12 -8 10 1 -2 7 27 23 72 38
41 15 99 39 128 55 29 16 58 26 63 22 5 -3 8 -1 7 4 -4 14 113 92 125 85 6 -3
7 -2 4 3 -9 15 79 97 94 88 8 -5 10 -3 5 5 -5 7 -1 20 7 29 8 9 28 31 44 48
15 17 34 43 42 57 8 15 18 27 23 27 5 0 7 3 4 8 -5 9 38 84 45 77 3 -2 5 4 6
13 2 31 49 143 64 153 8 5 9 9 3 9 -11 0 3 72 19 97 4 6 4 18 1 27 -5 13 6 16
73 16 43 0 255 1 471 3 215 1 392 -2 392 -6 0 -5 5 -5 11 -1 6 3 122 6 257 5
136 0 263 2 283 5 21 3 51 19 75 40 37 33 39 38 41 98 1 51 -3 69 -20 93 -48
68 -9 65 -791 66 -388 0 -706 4 -706 8 0 5 -5 9 -11 9 -5 0 -7 -4 -4 -10 3 -5
0 -10 -9 -10 -8 0 -17 6 -19 13 -4 10 -6 10 -6 0 -1 -14 -30 -18 -32 -5 0 4
-3 16 -5 27 -2 11 -5 35 -7 52 -1 18 -5 33 -8 33 -4 0 -10 16 -13 35 -6 31
-18 63 -63 165 -15 35 -69 124 -88 147 -5 7 -16 19 -22 27 -7 8 -13 18 -13 21
0 4 -35 41 -77 83 -43 42 -77 81 -75 85 1 5 -2 6 -7 3 -8 -6 -62 31 -69 46 -2
5 -9 8 -16 8 -7 0 -18 6 -24 13 -7 6 -16 12 -20 12 -4 0 -25 11 -47 24 -22 14
-49 26 -60 28 -11 2 -22 8 -23 13 -2 6 -9 7 -15 3 -7 -4 -8 0 -3 12 5 14 4 16
-7 6 -10 -8 -22 -8 -46 0 -17 6 -31 14 -31 17 0 7 -25 11 -77 15 -13 0 -23 4
-23 8 0 5 -8 6 -18 4 -10 -2 -25 1 -33 6 -12 7 -12 9 1 9 13 0 13 1 0 10 -13
9 -13 11 0 20 8 5 10 10 4 10 -8 0 -12 195 -12 725 l0 726 -27 35 c-46 60
-122 79 -192 48z m-81 -1747 c1 -27 0 -51 -4 -53 -4 -3 -5 -14 -3 -26 5 -26
-3 -41 -18 -31 -17 10 -138 11 -159 1 -10 -5 -18 -5 -18 -1 0 5 14 14 30 21
17 8 30 19 30 25 0 8 -4 7 -12 -1 -15 -15 -31 -16 -22 0 4 7 3 8 -5 4 -6 -4
-9 -11 -6 -16 3 -5 -4 -8 -15 -7 -23 1 -25 8 -7 27 10 12 9 12 -4 2 -9 -6 -19
-9 -23 -5 -4 4 -4 -1 0 -11 6 -15 4 -17 -7 -11 -11 7 -12 6 -2 -7 7 -8 9 -19
5 -24 -4 -4 1 -2 11 5 11 9 17 10 17 2 0 -6 -4 -12 -10 -12 -5 -1 -18 -2 -27
-3 -10 -1 -33 -10 -51 -19 -18 -10 -37 -15 -42 -12 -12 7 -4 25 11 25 6 0 7
-4 4 -10 -3 -6 1 -7 10 -3 14 5 14 8 3 15 -9 6 -6 7 10 3 15 -4 24 -1 28 10 6
13 8 14 15 3 5 -7 9 -8 9 -2 0 5 -7 19 -15 30 -15 18 -15 18 -8 0 4 -13 3 -17
-5 -12 -8 4 -10 2 -6 -7 4 -11 -2 -15 -18 -15 -51 1 -77 -6 -68 -18 6 -6 6
-15 2 -19 -4 -5 -1 -5 6 -1 6 4 12 2 12 -3 0 -19 -17 -12 -34 13 -15 24 -15
25 22 48 20 12 43 22 50 20 7 -2 11 1 10 5 -2 4 -1 8 2 8 3 0 19 10 37 23 17
12 36 22 41 22 5 0 23 7 38 15 35 18 58 20 48 3 -4 -7 -3 -8 5 -4 6 4 9 11 6
16 -3 5 7 12 22 16 15 3 36 8 47 11 10 3 16 1 13 -4 -4 -5 0 -10 7 -10 8 0 12
6 10 12 -3 6 2 12 10 12 10 0 15 -15 18 -50z m322 41 c-6 -10 -4 -10 7 -2 10
8 29 7 72 -5 32 -9 55 -19 52 -23 -4 -4 3 -4 16 -1 17 5 20 3 14 -7 -5 -8 -4
-11 3 -6 15 9 85 -21 77 -34 -3 -6 0 -7 9 -4 15 6 88 -31 118 -59 8 -6 23 -17
33 -24 11 -6 19 -16 17 -23 -1 -6 2 -9 7 -5 13 8 144 -122 136 -135 -4 -6 -1
-9 7 -8 7 2 12 -5 12 -14 -1 -10 2 -16 6 -13 4 3 13 -2 20 -10 7 -8 9 -15 4
-15 -5 0 2 -7 14 -16 12 -8 20 -20 17 -25 -4 -5 -2 -9 3 -9 10 0 38 -60 34
-72 -1 -5 2 -8 7 -8 11 0 60 -119 67 -163 12 -77 10 -92 -13 -95 -13 -2 -23 1
-23 7 0 6 -5 11 -11 11 -5 0 -7 -4 -4 -10 3 -5 -1 -10 -9 -10 -9 0 -16 6 -17
13 0 10 -2 10 -6 0 -2 -7 -9 -13 -14 -13 -6 0 -7 6 -3 13 6 10 4 10 -7 0 -16
-16 -33 -17 -23 -1 5 7 3 8 -7 2 -21 -13 -119 -13 -112 0 4 6 -1 5 -10 -3 -11
-9 -17 -10 -17 -2 0 6 -5 11 -11 11 -5 0 -8 -4 -5 -8 3 -5 -24 -8 -59 -8 -36
1 -65 5 -65 11 0 6 -5 3 -10 -5 -6 -10 -10 -11 -10 -2 0 6 -5 12 -11 12 -5 0
-7 -4 -4 -10 3 -5 1 -10 -4 -10 -6 0 -11 6 -12 13 0 10 -2 10 -6 0 -2 -7 -9
-13 -14 -13 -6 0 -7 6 -3 13 5 8 2 8 -9 -2 -11 -9 -17 -10 -17 -2 0 6 -5 11
-11 11 -5 0 -8 -4 -5 -9 8 -12 -80 -8 -91 4 -4 4 -2 5 4 1 9 -5 11 -2 7 8 -7
19 -31 28 -31 10 0 -7 4 -11 9 -8 4 3 5 -2 2 -11 -8 -19 -31 -13 -25 6 2 8 4
26 4 41 1 15 4 25 6 22 2 -2 10 4 16 13 11 15 13 13 13 -11 0 -17 -4 -23 -8
-16 -5 9 -9 9 -14 1 -4 -6 -4 -11 1 -12 4 0 16 -2 26 -4 10 -2 14 1 10 8 -3 6
-7 39 -8 73 0 34 -7 69 -14 78 -7 8 -11 21 -8 28 2 7 0 21 -5 31 -6 11 -5 17
3 17 18 0 5 10 -19 15 -14 2 -19 -1 -17 -13 1 -9 7 -16 12 -15 5 1 9 -16 9
-38 0 -21 -4 -39 -9 -39 -5 0 -5 9 -2 20 4 12 2 20 -5 20 -6 0 -10 6 -8 12 3
7 -1 23 -8 36 -15 30 -8 51 20 62 17 7 18 9 4 9 -16 1 -20 7 -17 27 1 11 -24
22 -38 17 -7 -3 -13 -10 -13 -15 0 -6 6 -5 15 2 8 7 16 9 16 4 6 -38 5 -55 -2
-60 -5 -3 -9 1 -9 9 0 8 -7 20 -15 27 -15 13 -21 51 -7 49 19 -3 32 2 32 12 0
8 -6 7 -17 -2 -15 -12 -16 -12 -10 4 5 12 3 16 -5 11 -7 -5 -9 -2 -5 9 4 11 2
14 -9 10 -17 -6 -18 -20 -1 -26 6 -2 9 -8 5 -12 -10 -11 -33 17 -34 43 -1 17
2 20 11 12 10 -8 15 -8 21 1 4 7 3 10 -2 7 -5 -3 -15 0 -22 8 -10 11 -10 14 0
14 8 0 9 3 3 8 -13 8 -13 101 -1 121 6 10 5 12 -2 7 -15 -9 -15 -1 -1 26 8 15
8 19 0 14 -6 -4 -11 -3 -11 3 0 5 5 13 11 17 8 4 7 9 -2 15 -12 8 -11 11 1 19
8 5 10 10 5 10 -6 0 -11 9 -11 20 0 11 6 20 14 20 8 0 10 -5 6 -12z m-720
-177 c3 -5 -1 -14 -9 -21 -8 -7 -15 -9 -15 -4 -1 5 -10 -2 -20 -15 -11 -13
-20 -20 -20 -16 0 9 -64 -58 -65 -67 0 -5 -4 -8 -8 -9 -24 -2 -14 14 38 63 31
29 62 58 68 65 14 15 24 16 31 4z m16 -35 c0 -21 -25 -37 -45 -29 -14 5 -17 3
-12 -10 3 -9 3 -16 -1 -14 -4 1 -22 -12 -39 -30 -17 -17 -34 -29 -37 -26 -3 4
-6 -3 -6 -15 0 -11 -6 -27 -14 -35 -18 -18 -78 -137 -69 -137 4 0 2 -5 -4 -11
-6 -6 -9 -18 -6 -25 3 -8 0 -14 -7 -14 -6 0 -8 -4 -5 -10 3 -5 1 -10 -4 -10
-6 0 -11 -5 -11 -11 0 -5 4 -8 9 -4 10 6 7 -27 -4 -45 -3 -6 0 -10 7 -10 10 0
10 -2 -1 -9 -9 -6 -10 -11 -2 -15 7 -5 8 -13 1 -25 -5 -10 -6 -21 -3 -25 10
-10 14 -46 5 -47 -58 -7 -71 -6 -66 3 4 6 -1 6 -14 -1 -27 -14 -35 -14 -26 2
6 9 4 9 -8 -1 -19 -15 -31 -3 -18 18 4 7 6 19 3 26 -2 6 1 15 6 19 6 3 8 11 5
17 -4 6 1 17 11 25 11 7 14 13 7 13 -12 0 -11 4 9 55 7 17 13 32 13 35 7 29
42 88 49 83 6 -3 7 -1 3 5 -9 15 81 152 100 152 8 0 14 -4 14 -10 0 -5 -6 -10
-14 -10 -8 0 -18 -9 -21 -20 -4 -11 -11 -17 -17 -14 -7 4 -8 2 -4 -5 4 -6 11
-9 16 -6 4 3 11 -1 14 -7 2 -7 4 -2 3 11 -1 13 4 26 13 29 13 5 13 3 0 -14
-14 -18 -14 -18 3 -5 9 8 15 16 12 19 -3 3 2 16 10 29 9 13 13 23 11 23 -3 0
7 13 22 28 15 15 30 27 34 25 4 -2 12 5 18 16 6 12 16 18 25 15 8 -4 15 -1 15
5 0 6 5 11 10 11 6 0 10 -6 10 -14z m828 -377 c-20 -13 -32 -10 -19 4 6 8 7
18 3 23 -4 4 1 2 11 -5 14 -11 15 -16 5 -22z m5 -16 c-10 -3 -10 -10 -2 -24 7
-15 7 -24 -2 -35 -19 -23 -28 -16 -27 19 1 31 12 47 33 46 6 0 4 -3 -2 -6z
m-890 -486 c-4 -6 0 -8 8 -5 8 3 25 -5 38 -18 12 -12 28 -21 36 -18 7 3 19 -4
27 -15 8 -12 18 -18 21 -14 4 3 7 2 7 -4 0 -15 -11 -22 -26 -16 -8 3 -11 10
-7 16 3 6 1 7 -5 3 -8 -5 -10 -1 -6 9 5 11 2 16 -7 14 -8 -2 -23 2 -35 8 -16
9 -21 9 -22 0 0 -7 -3 -24 -6 -39 -4 -16 -2 -28 3 -28 6 0 8 8 6 18 -5 29 10
48 28 34 7 -7 17 -9 21 -5 4 4 4 0 0 -10 -3 -10 -1 -17 6 -17 6 0 9 -4 6 -8
-3 -5 1 -9 9 -10 8 -1 22 -3 30 -4 8 -1 15 -5 15 -10 0 -5 6 -8 13 -7 24 3 38
-1 33 -10 -5 -8 22 -8 32 -1 8 7 29 4 39 -6 22 -21 48 -10 47 19 -1 22 2 25
16 17 10 -5 20 -7 23 -4 10 11 87 12 87 2 0 -6 -7 -7 -16 -4 -10 4 -13 2 -8
-6 5 -7 3 -8 -6 -3 -9 5 -11 4 -6 -3 5 -8 2 -10 -8 -6 -9 3 -16 1 -16 -5 0
-14 27 -15 35 -1 3 6 11 10 17 10 6 0 5 -7 -3 -17 -9 -11 -10 -14 -2 -9 10 5
13 -58 12 -293 0 -165 -4 -303 -9 -306 -4 -3 -16 2 -24 11 -9 8 -16 11 -16 6
0 -10 -45 1 -82 19 -10 5 -25 9 -33 9 -10 0 -13 5 -9 12 4 6 3 8 -4 4 -13 -8
-92 22 -92 36 0 5 -5 6 -10 3 -6 -3 -13 1 -16 9 -3 9 -9 14 -13 11 -7 -4 -65
32 -114 71 -19 15 -25 28 -21 40 5 15 4 16 -4 5 -9 -12 -13 -13 -26 -1 -9 7
-14 15 -11 18 3 3 -5 10 -18 17 -12 6 -21 17 -19 24 1 7 -2 10 -7 7 -12 -8
-53 49 -43 59 4 5 2 5 -5 1 -17 -9 -28 14 -12 26 11 8 10 9 -3 5 -17 -6 -51
35 -51 60 0 7 -6 14 -13 17 -8 3 -11 12 -7 22 4 10 2 15 -4 11 -9 -6 -39 54
-34 69 2 4 -1 10 -6 13 -18 13 -31 69 -19 82 8 9 8 10 -1 5 -6 -3 -14 -2 -18
4 -3 5 -1 10 4 10 6 0 11 5 11 10 0 6 -5 9 -11 8 -7 -2 -14 12 -16 30 l-4 32
165 -1 c113 -1 164 -5 159 -12z m1486 -1 c12 -8 13 -8 7 2 -5 8 0 12 14 12 17
0 19 -4 14 -27 -8 -40 -26 -96 -32 -108 -4 -5 -6 -19 -7 -30 0 -11 -5 -20 -12
-20 -6 0 -15 -4 -20 -9 -5 -5 -3 -6 5 -2 7 4 12 1 12 -8 0 -9 -5 -16 -11 -16
-5 0 -7 -4 -4 -10 3 -5 1 -10 -6 -10 -7 0 -10 -3 -6 -6 9 -10 -22 -66 -33 -59
-6 4 -7 -1 -3 -11 4 -12 3 -15 -5 -10 -7 4 -10 2 -6 -7 3 -8 -2 -20 -11 -27
-8 -7 -15 -19 -15 -27 0 -8 -4 -12 -9 -8 -5 3 -13 -4 -16 -15 -10 -32 -133
-152 -146 -144 -7 4 -9 3 -6 -3 8 -13 -50 -56 -65 -47 -7 4 -8 3 -4 -4 6 -11
-31 -38 -46 -34 -5 1 -8 -3 -8 -9 0 -5 -4 -8 -9 -5 -5 3 -12 -2 -15 -11 -6
-15 -8 -15 -16 -3 -8 13 -10 13 -10 -1 0 -9 -8 -19 -17 -22 -10 -3 -42 -14
-70 -25 -29 -11 -53 -18 -53 -16 0 3 -14 -3 -31 -12 -23 -11 -29 -12 -23 -2 6
10 5 11 -7 2 -8 -6 -28 -13 -45 -16 -32 -4 -32 -4 -30 41 0 25 6 49 11 53 6 5
6 8 -1 8 -13 0 -12 58 0 79 6 10 5 12 -2 7 -15 -9 -15 -1 -1 26 6 11 7 18 2
15 -11 -7 -10 173 1 192 6 10 5 12 -2 7 -15 -9 -15 -1 -1 26 6 11 7 18 2 15
-13 -8 -11 96 2 105 7 5 6 8 -1 8 -12 0 -13 98 -1 118 5 6 5 18 0 25 -21 34
-16 35 356 35 260 0 370 -3 380 -12z m-1309 -84 c18 -1 55 -10 55 -13 0 -1 13
-2 28 -3 25 -2 46 -19 47 -38 0 -10 -26 -4 -42 10 -8 6 -18 9 -21 5 -4 -3 -7
0 -7 8 -1 10 -3 9 -11 -3 -9 -17 -12 -17 -34 -2 -14 9 -25 13 -25 9 0 -4 -6
-2 -13 4 -8 6 -17 7 -22 3 -4 -4 -2 3 6 15 7 12 16 19 19 14 3 -4 12 -8 20 -9z"/>
<path d="M3645 4799 c-3 -4 2 -6 10 -5 21 3 28 13 10 13 -9 0 -18 -4 -20 -8z"/>
<path d="M3716 4767 c3 -10 9 -15 12 -12 3 3 0 11 -7 18 -10 9 -11 8 -5 -6z"/>
<path d="M3691 4730 c0 -8 4 -22 9 -30 7 -11 10 -11 10 -2 0 7 4 11 9 7 5 -3
12 -1 15 4 4 5 2 12 -3 15 -5 4 -13 1 -17 -6 -5 -8 -10 -6 -15 8 -5 13 -8 14
-8 4z"/>
<path d="M3616 4714 c-9 -23 0 -30 19 -14 8 7 15 8 15 3 0 -5 9 -9 20 -10 22
-2 25 5 10 27 -7 11 -10 11 -10 2 0 -14 -31 -13 -41 1 -3 5 -9 1 -13 -9z"/>
<path d="M4133 4795 c0 -8 4 -12 9 -9 4 3 8 9 8 15 0 5 -4 9 -8 9 -5 0 -9 -7
-9 -15z"/>
<path d="M4135 4760 c-2 -3 9 -6 25 -6 17 0 27 2 25 5 -8 7 -45 9 -50 1z"/>
<path d="M4200 4766 c0 -2 8 -10 18 -17 15 -13 16 -12 3 4 -13 16 -21 21 -21
13z"/>
<path d="M4196 4718 c3 -5 10 -6 15 -3 13 9 11 12 -6 12 -8 0 -12 -4 -9 -9z"/>
<path d="M4120 4700 c-9 -6 -10 -10 -3 -10 6 0 15 5 18 10 8 12 4 12 -15 0z"/>
<path d="M4187 4699 c7 -7 15 -10 18 -7 3 3 -2 9 -12 12 -14 6 -15 5 -6 -5z"/>
<path d="M4226 4682 c-3 -5 1 -9 9 -9 8 0 12 4 9 9 -3 4 -7 8 -9 8 -2 0 -6 -4
-9 -8z"/>
<path d="M4296 4678 c3 -4 11 -5 19 -1 21 7 19 12 -4 10 -11 0 -18 -5 -15 -9z"/>
<path d="M4216 4647 c3 -10 9 -15 12 -12 3 3 0 11 -7 18 -10 9 -11 8 -5 -6z"/>
<path d="M4296 4647 c3 -10 9 -15 12 -12 3 3 0 11 -7 18 -10 9 -11 8 -5 -6z"/>
<path d="M4193 4635 c0 -8 4 -12 9 -9 5 3 6 10 3 15 -9 13 -12 11 -12 -6z"/>
<path d="M4146 4622 c-2 -4 4 -8 14 -8 10 0 16 4 14 8 -3 4 -9 8 -14 8 -5 0
-11 -4 -14 -8z"/>
<path d="M4204 4602 c4 -3 14 -7 22 -8 9 -1 13 0 10 4 -4 3 -14 7 -22 8 -9 1
-13 0 -10 -4z"/>
<path d="M4506 4602 c-3 -5 1 -9 9 -9 8 0 12 4 9 9 -3 4 -7 8 -9 8 -2 0 -6 -4
-9 -8z"/>
<path d="M4320 4575 c-7 -8 -17 -12 -23 -8 -6 4 -7 1 -3 -6 6 -9 13 -8 27 5
10 9 19 19 19 21 0 7 -8 2 -20 -12z"/>
<path d="M4155 4570 c-4 -6 -12 -7 -18 -4 -7 4 -8 3 -4 -1 13 -15 34 -14 34 1
0 17 -4 18 -12 4z"/>
<path d="M4235 4570 c-4 -6 -12 -7 -18 -4 -7 4 -8 3 -4 -1 13 -15 34 -14 34 1
0 17 -4 18 -12 4z"/>
<path d="M4433 4565 c0 -8 4 -12 9 -9 5 3 6 10 3 15 -9 13 -12 11 -12 -6z"/>
<path d="M4373 4555 c0 -8 4 -12 9 -9 4 3 8 9 8 15 0 5 -4 9 -8 9 -5 0 -9 -7
-9 -15z"/>
<path d="M4456 4553 c-6 -14 -5 -15 5 -6 7 7 10 15 7 18 -3 3 -9 -2 -12 -12z"/>
<path d="M4210 4536 c0 -2 8 -10 18 -17 15 -13 16 -12 3 4 -13 16 -21 21 -21
13z"/>
<path d="M4293 4525 c0 -8 4 -15 9 -15 4 0 8 4 8 9 0 6 -4 12 -8 15 -5 3 -9
-1 -9 -9z"/>
<path d="M4419 4513 c-13 -16 -12 -17 4 -4 9 7 17 15 17 17 0 8 -8 3 -21 -13z"/>
<path d="M4456 4522 c-3 -5 1 -9 9 -9 8 0 12 4 9 9 -3 4 -7 8 -9 8 -2 0 -6 -4
-9 -8z"/>
<path d="M4195 4511 c-3 -5 -2 -12 3 -15 5 -3 9 1 9 9 0 17 -3 19 -12 6z"/>
<path d="M4346 4502 c-3 -5 1 -9 9 -9 8 0 15 4 15 9 0 4 -4 8 -9 8 -6 0 -12
-4 -15 -8z"/>
<path d="M4475 4491 c-3 -5 -2 -12 3 -15 5 -3 9 1 9 9 0 17 -3 19 -12 6z"/>
<path d="M4555 4490 c-4 -6 -11 -7 -17 -4 -7 4 -8 2 -4 -5 6 -9 11 -9 22 0 14
11 18 19 10 19 -3 0 -8 -5 -11 -10z"/>
<path d="M4426 4478 c3 -5 10 -6 15 -3 13 9 11 12 -6 12 -8 0 -12 -4 -9 -9z"/>
<path d="M4270 4460 c0 -5 5 -10 11 -10 5 0 7 5 4 10 -3 6 -8 10 -11 10 -2 0
-4 -4 -4 -10z"/>
<path d="M4440 4460 c-9 -6 -10 -10 -3 -10 6 0 15 5 18 10 8 12 4 12 -15 0z"/>
<path d="M4530 4456 c0 -2 8 -10 18 -17 15 -13 16 -12 3 4 -13 16 -21 21 -21
13z"/>
<path d="M4333 4435 c0 -8 4 -12 9 -9 4 3 8 9 8 15 0 5 -4 9 -8 9 -5 0 -9 -7
-9 -15z"/>
<path d="M4396 4442 c-3 -5 1 -9 9 -9 8 0 12 4 9 9 -3 4 -7 8 -9 8 -2 0 -6 -4
-9 -8z"/>
<path d="M4594 4442 c4 -3 14 -7 22 -8 9 -1 13 0 10 4 -4 3 -14 7 -22 8 -9 1
-13 0 -10 -4z"/>
<path d="M4515 4431 c-3 -5 -2 -12 3 -15 5 -3 9 1 9 9 0 17 -3 19 -12 6z"/>
<path d="M4115 4420 c3 -5 8 -10 11 -10 2 0 4 5 4 10 0 6 -5 10 -11 10 -5 0
-7 -4 -4 -10z"/>
<path d="M4415 4409 c-4 -6 -5 -12 -2 -15 2 -3 7 2 10 11 7 17 1 20 -8 4z"/>
<path d="M4151 4376 c-10 -12 -8 -13 8 -9 12 3 18 9 15 14 -7 12 -10 11 -23
-5z"/>
<path d="M4679 4388 c-5 -18 -6 -38 -1 -34 7 8 12 36 6 36 -2 0 -4 -1 -5 -2z"/>
<path d="M4216 4362 c-3 -4 4 -9 15 -9 23 -2 25 3 4 10 -8 4 -16 3 -19 -1z"/>
<path d="M4433 4355 c0 -8 4 -12 9 -9 5 3 6 10 3 15 -9 13 -12 11 -12 -6z"/>
<path d="M4699 4353 c-13 -16 -12 -17 4 -4 16 13 21 21 13 21 -2 0 -10 -8 -17
-17z"/>
<path d="M4235 4330 c-4 -6 -11 -7 -17 -4 -7 4 -8 2 -4 -5 6 -9 11 -9 22 0 14
11 18 19 10 19 -3 0 -8 -5 -11 -10z"/>
<path d="M4696 4322 c-3 -5 1 -9 9 -9 8 0 12 4 9 9 -3 4 -7 8 -9 8 -2 0 -6 -4
-9 -8z"/>
<path d="M4211 4284 c0 -11 3 -14 6 -6 3 7 2 16 -1 19 -3 4 -6 -2 -5 -13z"/>
<path d="M4553 4285 c0 -8 4 -12 9 -9 5 3 6 10 3 15 -9 13 -12 11 -12 -6z"/>
<path d="M4479 4258 c-6 -20 -6 -39 0 -42 4 -3 7 6 7 20 0 20 -4 32 -7 22z"/>
<path d="M4555 4250 c-4 -6 -12 -7 -18 -4 -7 4 -8 3 -4 -1 13 -15 34 -14 34 1
0 17 -4 18 -12 4z"/>
<path d="M4635 4250 c-4 -6 -12 -7 -18 -4 -7 4 -8 3 -4 -1 13 -15 34 -14 34 1
0 17 -4 18 -12 4z"/>
<path d="M4715 4250 c-4 -6 -11 -7 -17 -4 -7 4 -8 2 -4 -5 6 -9 11 -9 22 0 14
11 18 19 10 19 -3 0 -8 -5 -11 -10z"/>
<path d="M4616 4207 c3 -10 9 -15 12 -12 3 3 0 11 -7 18 -10 9 -11 8 -5 -6z"/>
<path d="M4705 4200 c10 -11 20 -20 23 -20 3 0 -3 9 -13 20 -10 11 -20 20 -23
20 -3 0 3 -9 13 -20z"/>
<path d="M4674 4196 c1 -8 5 -18 8 -22 4 -3 5 1 4 10 -1 8 -5 18 -8 22 -4 3
-5 -1 -4 -10z"/>
<path d="M4794 4186 c1 -8 5 -18 8 -22 4 -3 5 1 4 10 -1 8 -5 18 -8 22 -4 3
-5 -1 -4 -10z"/>
<path d="M4593 4135 c0 -8 4 -12 9 -9 5 3 6 10 3 15 -9 13 -12 11 -12 -6z"/>
<path d="M4639 4113 c-13 -16 -12 -17 4 -4 16 13 21 21 13 21 -2 0 -10 -8 -17
-17z"/>
<path d="M4670 4099 c0 -5 5 -7 10 -4 6 3 10 8 10 11 0 2 -4 4 -10 4 -5 0 -10
-5 -10 -11z"/>
<path d="M4706 4102 c-3 -5 1 -9 9 -9 8 0 15 4 15 9 0 4 -4 8 -9 8 -6 0 -12
-4 -15 -8z"/>
<path d="M4433 4085 c0 -8 4 -12 9 -9 5 3 6 10 3 15 -9 13 -12 11 -12 -6z"/>
<path d="M4810 4081 c0 -6 4 -13 10 -16 6 -3 7 1 4 9 -7 18 -14 21 -14 7z"/>
<path d="M3330 4596 c7 -7 13 -7 20 0 6 6 3 10 -10 10 -13 0 -16 -4 -10 -10z"/>
<path d="M3264 4548 l-19 -23 23 19 c12 11 22 21 22 23 0 8 -8 2 -26 -19z"/>
<path d="M3146 4407 c2 -13 -1 -17 -12 -13 -11 4 -12 2 -4 -14 13 -23 13 -33
1 -25 -12 7 -34 -32 -26 -44 3 -5 -1 -12 -7 -14 -10 -4 -10 -6 0 -6 6 -1 12
-6 12 -12 0 -5 -4 -7 -10 -4 -6 4 -7 -1 -3 -11 4 -11 2 -15 -4 -11 -6 4 -17
-1 -24 -11 -12 -15 -12 -16 1 -5 13 10 18 8 29 -9 11 -18 11 -20 -3 -15 -11 4
-13 2 -9 -10 5 -12 3 -14 -7 -8 -9 5 -11 4 -6 -3 9 -15 11 -15 31 4 12 12 13
19 4 30 -9 11 -8 20 5 39 11 17 13 25 4 25 -6 0 -4 6 7 13 12 10 14 16 7 21
-7 4 -12 12 -12 17 0 6 4 8 9 4 6 -3 15 4 21 15 6 11 8 20 5 20 -4 0 1 7 9 16
21 21 20 33 -3 31 -13 -1 -18 -7 -15 -20z m-21 -87 c3 -5 1 -10 -4 -10 -6 0
-11 5 -11 10 0 6 2 10 4 10 3 0 8 -4 11 -10z"/>
<path d="M3099 4173 c-1 -5 -1 -11 0 -15 0 -5 -3 -8 -8 -8 -10 0 -8 -40 3 -58
4 -7 1 -12 -6 -12 -10 0 -9 -3 2 -9 8 -6 17 -8 21 -5 11 7 4 35 -12 44 -12 8
-11 12 5 23 13 10 16 16 7 21 -6 4 -9 12 -6 17 4 5 4 9 1 9 -3 0 -7 -3 -7 -7z"/>
<path d="M3033 4145 c0 -8 4 -12 9 -9 5 3 6 10 3 15 -9 13 -12 11 -12 -6z"/>
<path d="M4183 4188 c1 -15 6 -23 11 -18 4 4 4 16 -2 26 -9 16 -10 14 -9 -8z"/>
<path d="M3270 3729 c0 -5 -4 -8 -9 -4 -5 3 -12 1 -16 -4 -3 -6 4 -8 16 -6 26
5 62 -12 54 -26 -4 -5 -10 -7 -15 -4 -5 3 -11 1 -14 -4 -7 -11 13 -9 32 2 7 5
10 13 7 18 -4 5 -1 9 4 9 6 0 11 5 11 11 0 8 -5 8 -15 -1 -11 -9 -15 -9 -15
-1 0 7 -4 9 -10 6 -5 -3 -10 -1 -10 4 0 6 -4 11 -10 11 -5 0 -10 -5 -10 -11z"/>
<path d="M3190 3696 c7 -7 13 -7 20 0 6 6 3 10 -10 10 -13 0 -16 -4 -10 -10z"/>
<path d="M3233 3685 c0 -8 4 -12 9 -9 5 3 6 10 3 15 -9 13 -12 11 -12 -6z"/>
<path d="M3130 3681 c0 -6 4 -13 10 -16 6 -3 7 1 4 9 -7 18 -14 21 -14 7z"/>
<path d="M3256 3673 c-6 -14 -5 -15 5 -6 7 7 10 15 7 18 -3 3 -9 -2 -12 -12z"/>
<path d="M3367 3650 c3 -11 9 -22 13 -25 5 -3 6 4 3 15 -3 11 -9 22 -13 25 -5
3 -6 -4 -3 -15z"/>
<path d="M3113 3633 c0 -9 4 -10 14 -2 7 6 13 12 13 14 0 1 -6 2 -13 2 -8 0
-14 -6 -14 -14z"/>
<path d="M3266 3638 c3 -5 10 -6 15 -3 13 9 11 12 -6 12 -8 0 -12 -4 -9 -9z"/>
<path d="M3150 3626 c0 -2 7 -7 16 -10 8 -3 12 -2 9 4 -6 10 -25 14 -25 6z"/>
<path d="M3225 3620 c-3 -6 1 -7 9 -4 18 7 21 14 7 14 -6 0 -13 -4 -16 -10z"/>
<path d="M3680 3620 c-8 -5 -10 -10 -5 -10 6 0 17 5 25 10 8 5 11 10 5 10 -5
0 -17 -5 -25 -10z"/>
<path d="M3640 3611 c8 -6 11 -11 6 -11 -6 0 -5 -5 2 -12 9 -9 15 -9 25 1 10
10 8 11 -6 5 -12 -4 -17 -2 -15 6 2 7 -4 15 -12 17 -13 4 -13 3 0 -6z"/>
<path d="M3146 3602 c-3 -5 1 -9 9 -9 8 0 12 4 9 9 -3 4 -7 8 -9 8 -2 0 -6 -4
-9 -8z"/>
<path d="M3236 3602 c-3 -5 1 -9 9 -9 8 0 12 4 9 9 -3 4 -7 8 -9 8 -2 0 -6 -4
-9 -8z"/>
<path d="M3354 3602 c4 -3 14 -7 22 -8 9 -1 13 0 10 4 -4 3 -14 7 -22 8 -9 1
-13 0 -10 -4z"/>
<path d="M3310 3580 c0 -5 5 -10 11 -10 5 0 7 5 4 10 -3 6 -8 10 -11 10 -2 0
-4 -4 -4 -10z"/>
<path d="M3355 3570 c10 -11 20 -20 23 -20 3 0 -3 9 -13 20 -10 11 -20 20 -23
20 -3 0 3 -9 13 -20z"/>
<path d="M3130 3576 c0 -2 8 -10 18 -17 15 -13 16 -12 3 4 -13 16 -21 21 -21
13z"/>
<path d="M3249 3563 c-13 -16 -12 -17 4 -4 9 7 17 15 17 17 0 8 -8 3 -21 -13z"/>
<path d="M3175 3560 c5 -8 42 -6 50 1 2 3 -8 5 -25 5 -16 0 -27 -3 -25 -6z"/>
<path d="M3593 3553 c0 -9 4 -10 14 -2 7 6 13 12 13 14 0 1 -6 2 -13 2 -8 0
-14 -6 -14 -14z"/>
<path d="M3550 3546 c0 -2 7 -7 16 -10 8 -3 12 -2 9 4 -6 10 -25 14 -25 6z"/>
<path d="M3660 3545 c0 -2 6 -8 13 -14 10 -8 14 -7 14 2 0 8 -6 14 -14 14 -7
0 -13 -1 -13 -2z"/>
<path d="M3713 3535 c0 -8 4 -12 9 -9 5 3 6 10 3 15 -9 13 -12 11 -12 -6z"/>
<path d="M3093 3525 c0 -8 4 -15 9 -15 4 0 8 4 8 9 0 6 -4 12 -8 15 -5 3 -9
-1 -9 -9z"/>
<path d="M3176 3527 c3 -10 9 -15 12 -12 3 3 0 11 -7 18 -10 9 -11 8 -5 -6z"/>
<path d="M3217 3533 c-10 -9 -9 -23 1 -23 5 0 9 7 9 15 0 17 -1 18 -10 8z"/>
<path d="M3297 3533 c-10 -9 -9 -23 1 -23 5 0 9 7 9 15 0 17 -1 18 -10 8z"/>
<path d="M3635 3531 c-3 -5 -2 -12 3 -15 5 -3 9 1 9 9 0 17 -3 19 -12 6z"/>
<path d="M3153 3515 c0 -8 4 -12 9 -9 5 3 6 10 3 15 -9 13 -12 11 -12 -6z"/>
<path d="M3610 3521 c0 -6 4 -13 10 -16 6 -3 7 1 4 9 -7 18 -14 21 -14 7z"/>
<path d="M3233 3475 c0 -8 4 -12 9 -9 5 3 6 10 3 15 -9 13 -12 11 -12 -6z"/>
<path d="M3313 3475 c0 -8 4 -12 9 -9 5 3 6 10 3 15 -9 13 -12 11 -12 -6z"/>
<path d="M3550 3462 c0 -5 7 -9 15 -9 8 0 12 4 9 9 -3 4 -9 8 -15 8 -5 0 -9
-4 -9 -8z"/>
<path d="M3595 3460 c3 -5 8 -10 11 -10 2 0 4 5 4 10 0 6 -5 10 -11 10 -5 0
-7 -4 -4 -10z"/>
<path d="M3656 3447 c3 -10 9 -15 12 -12 3 3 0 11 -7 18 -10 9 -11 8 -5 -6z"/>
<path d="M3633 3435 c0 -8 4 -12 9 -9 5 3 6 10 3 15 -9 13 -12 11 -12 -6z"/>
<path d="M3590 3436 c0 -2 8 -10 18 -17 15 -13 16 -12 3 4 -13 16 -21 21 -21
13z"/>
<path d="M3550 3382 c0 -5 7 -9 15 -9 8 0 12 4 9 9 -3 4 -9 8 -15 8 -5 0 -9
-4 -9 -8z"/>
<path d="M3610 3359 c0 -5 5 -7 10 -4 6 3 10 8 10 11 0 2 -4 4 -10 4 -5 0 -10
-5 -10 -11z"/>
<path d="M3670 3338 c0 -4 4 -8 9 -8 6 0 12 4 15 8 3 5 -1 9 -9 9 -8 0 -15 -4
-15 -9z"/>
<path d="M3716 3327 c3 -10 9 -15 12 -12 3 3 0 11 -7 18 -10 9 -11 8 -5 -6z"/>
<path d="M3566 3321 c-3 -5 2 -8 12 -7 9 0 16 -5 14 -12 -1 -8 2 -11 8 -7 8 5
7 11 -1 21 -13 16 -25 18 -33 5z"/>
<path d="M3625 3300 c-3 -6 1 -7 9 -4 18 7 21 14 7 14 -6 0 -13 -4 -16 -10z"/>
<path d="M3535 3289 c-4 -6 -5 -12 -2 -15 2 -3 7 2 10 11 7 17 1 20 -8 4z"/>
<path d="M3246 3282 c-3 -5 1 -9 9 -9 8 0 12 4 9 9 -3 4 -7 8 -9 8 -2 0 -6 -4
-9 -8z"/>
<path d="M3426 3282 c-3 -5 1 -9 9 -9 8 0 12 4 9 9 -3 4 -7 8 -9 8 -2 0 -6 -4
-9 -8z"/>
<path d="M3555 3281 c-3 -5 -2 -12 3 -15 5 -3 9 1 9 9 0 17 -3 19 -12 6z"/>
<path d="M3636 3282 c-3 -5 1 -9 9 -9 8 0 12 4 9 9 -3 4 -7 8 -9 8 -2 0 -6 -4
-9 -8z"/>
<path d="M3589 3263 c-13 -16 -12 -17 4 -4 9 7 17 15 17 17 0 8 -8 3 -21 -13z"/>
<path d="M3480 3260 c-9 -6 -10 -10 -3 -10 6 0 15 5 18 10 8 12 4 12 -15 0z"/>
<path d="M3713 3249 c-2 -23 3 -25 10 -4 4 8 3 16 -1 19 -4 3 -9 -4 -9 -15z"/>
<path d="M3595 3241 c-3 -5 -2 -12 3 -15 5 -3 9 1 9 9 0 17 -3 19 -12 6z"/>
<path d="M3675 3240 c-3 -5 -1 -10 4 -10 6 0 11 5 11 10 0 6 -2 10 -4 10 -3 0
-8 -4 -11 -10z"/>
<path d="M3626 3222 c-3 -5 1 -9 9 -9 8 0 15 4 15 9 0 4 -4 8 -9 8 -6 0 -12
-4 -15 -8z"/>
<path d="M3573 3195 c0 -8 4 -12 9 -9 4 3 8 9 8 15 0 5 -4 9 -8 9 -5 0 -9 -7
-9 -15z"/>
<path d="M3374 3162 c4 -3 14 -7 22 -8 9 -1 13 0 10 4 -4 3 -14 7 -22 8 -9 1
-13 0 -10 -4z"/>
<path d="M3590 3156 c4 -4 16 -4 26 2 16 9 14 10 -8 9 -15 -1 -23 -6 -18 -11z"/>
<path d="M3690 3160 c0 -5 5 -10 11 -10 5 0 7 5 4 10 -3 6 -8 10 -11 10 -2 0
-4 -4 -4 -10z"/>
<path d="M3555 3140 c3 -5 8 -10 11 -10 2 0 4 5 4 10 0 6 -5 10 -11 10 -5 0
-7 -4 -4 -10z"/>
<path d="M3630 3142 c0 -5 7 -9 15 -9 8 0 12 4 9 9 -3 4 -9 8 -15 8 -5 0 -9
-4 -9 -8z"/>
<path d="M3676 3122 c-3 -5 1 -9 9 -9 8 0 12 4 9 9 -3 4 -7 8 -9 8 -2 0 -6 -4
-9 -8z"/>
<path d="M3710 3126 c0 -2 7 -7 16 -10 8 -3 12 -2 9 4 -6 10 -25 14 -25 6z"/>
<path d="M3530 3081 c0 -6 4 -12 8 -15 5 -3 9 1 9 9 0 8 -4 15 -9 15 -4 0 -8
-4 -8 -9z"/>
<path d="M3653 3075 c0 -8 4 -12 9 -9 4 3 8 9 8 15 0 5 -4 9 -8 9 -5 0 -9 -7
-9 -15z"/>
<path d="M3656 3033 c-6 -14 -5 -15 5 -6 7 7 10 15 7 18 -3 3 -9 -2 -12 -12z"/>
<path d="M4173 3715 c0 -8 4 -12 9 -9 5 3 6 10 3 15 -9 13 -12 11 -12 -6z"/>
<path d="M4550 3719 c0 -5 5 -7 10 -4 6 3 10 8 10 11 0 2 -4 4 -10 4 -5 0 -10
-5 -10 -11z"/>
<path d="M4710 3719 c0 -5 5 -7 10 -4 6 3 10 8 10 11 0 2 -4 4 -10 4 -5 0 -10
-5 -10 -11z"/>
<path d="M4236 3661 c-9 -15 23 -36 35 -24 8 8 6 11 -7 10 -11 -1 -18 4 -16
11 2 14 -4 16 -12 3z"/>
<path d="M4616 3642 c-3 -5 1 -9 9 -9 8 0 12 4 9 9 -3 4 -7 8 -9 8 -2 0 -6 -4
-9 -8z"/>
<path d="M4696 3642 c-3 -5 1 -9 9 -9 8 0 12 4 9 9 -3 4 -7 8 -9 8 -2 0 -6 -4
-9 -8z"/>
<path d="M4635 3611 c-3 -5 -2 -12 3 -15 5 -3 9 1 9 9 0 17 -3 19 -12 6z"/>
<path d="M4715 3610 c-4 -6 -12 -7 -18 -4 -7 4 -8 3 -4 -1 13 -15 34 -14 34 1
0 17 -4 18 -12 4z"/>
<path d="M4075 3601 c-3 -5 -2 -12 3 -15 5 -3 9 1 9 9 0 17 -3 19 -12 6z"/>
<path d="M4133 3596 c-3 -6 -3 -8 2 -4 4 4 13 3 20 -2 8 -7 12 -5 12 3 0 16
-25 18 -34 3z"/>
<path d="M4215 3600 c-3 -5 -1 -10 4 -10 6 0 11 5 11 10 0 6 -2 10 -4 10 -3 0
-8 -4 -11 -10z"/>
<path d="M4239 3573 c-13 -16 -12 -17 4 -4 9 7 17 15 17 17 0 8 -8 3 -21 -13z"/>
<path d="M4275 3580 c-3 -5 -1 -10 4 -10 6 0 11 5 11 10 0 6 -2 10 -4 10 -3 0
-8 -4 -11 -10z"/>
<path d="M4690 3576 c0 -2 8 -10 18 -17 15 -13 16 -12 3 4 -13 16 -21 21 -21
13z"/>
<path d="M4150 3560 c0 -5 5 -10 11 -10 5 0 7 5 4 10 -3 6 -8 10 -11 10 -2 0
-4 -4 -4 -10z"/>
<path d="M4675 3551 c-3 -5 -2 -12 3 -15 5 -3 9 1 9 9 0 17 -3 19 -12 6z"/>
<path d="M4076 3538 c3 -5 10 -6 15 -3 13 9 11 12 -6 12 -8 0 -12 -4 -9 -9z"/>
<path d="M4220 3546 c0 -2 8 -10 18 -17 15 -13 16 -12 3 4 -13 16 -21 21 -21
13z"/>
<path d="M4113 3525 c0 -8 4 -12 9 -9 5 3 6 10 3 15 -9 13 -12 11 -12 -6z"/>
<path d="M4195 3531 c-3 -5 -2 -12 3 -15 5 -3 9 1 9 9 0 17 -3 19 -12 6z"/>
<path d="M4136 3513 c-6 -14 -5 -15 5 -6 7 7 10 15 7 18 -3 3 -9 -2 -12 -12z"/>
<path d="M4170 3521 c0 -6 4 -13 10 -16 6 -3 7 1 4 9 -7 18 -14 21 -14 7z"/>
<path d="M4075 3501 c-3 -5 -2 -12 3 -15 5 -3 9 1 9 9 0 17 -3 19 -12 6z"/>
<path d="M4230 3500 c0 -5 5 -10 11 -10 5 0 7 5 4 10 -3 6 -8 10 -11 10 -2 0
-4 -4 -4 -10z"/>
<path d="M4266 3498 c3 -4 9 -8 15 -8 5 0 9 4 9 8 0 5 -7 9 -15 9 -8 0 -12 -4
-9 -9z"/>
<path d="M4594 3496 c1 -8 5 -18 8 -22 4 -3 5 1 4 10 -1 8 -5 18 -8 22 -4 3
-5 -1 -4 -10z"/>
<path d="M4319 3498 c-5 -18 -6 -38 -1 -34 7 8 12 36 6 36 -2 0 -4 -1 -5 -2z"/>
<path d="M4099 3473 c-13 -16 -12 -17 4 -4 9 7 17 15 17 17 0 8 -8 3 -21 -13z"/>
<path d="M4135 3480 c-2 -3 9 -6 25 -6 17 0 27 2 25 5 -8 7 -45 9 -50 1z"/>
<path d="M4200 3486 c0 -2 8 -10 18 -17 15 -13 16 -12 3 4 -13 16 -21 21 -21
13z"/>
<path d="M4656 3478 c3 -5 10 -6 15 -3 13 9 11 12 -6 12 -8 0 -12 -4 -9 -9z"/>
<path d="M4690 3480 c0 -5 5 -10 11 -10 5 0 7 5 4 10 -3 6 -8 10 -11 10 -2 0
-4 -4 -4 -10z"/>
<path d="M4196 3438 c3 -5 10 -6 15 -3 13 9 11 12 -6 12 -8 0 -12 -4 -9 -9z"/>
<path d="M4315 3441 c-3 -5 -2 -12 3 -15 5 -3 9 1 9 9 0 17 -3 19 -12 6z"/>
<path d="M4479 3438 c-5 -18 -6 -38 -1 -34 7 8 12 36 6 36 -2 0 -4 -1 -5 -2z"/>
<path d="M4120 3420 c-9 -6 -10 -10 -3 -10 6 0 15 5 18 10 8 12 4 12 -15 0z"/>
<path d="M4187 3419 c7 -7 15 -10 18 -7 3 3 -2 9 -12 12 -14 6 -15 5 -6 -5z"/>
<path d="M4670 3420 c0 -5 5 -10 11 -10 5 0 7 5 4 10 -3 6 -8 10 -11 10 -2 0
-4 -4 -4 -10z"/>
<path d="M4226 3402 c-3 -5 1 -9 9 -9 8 0 12 4 9 9 -3 4 -7 8 -9 8 -2 0 -6 -4
-9 -8z"/>
<path d="M4294 3402 c4 -3 14 -7 22 -8 9 -1 13 0 10 4 -4 3 -14 7 -22 8 -9 1
-13 0 -10 -4z"/>
<path d="M4216 3367 c3 -10 9 -15 12 -12 3 3 0 11 -7 18 -10 9 -11 8 -5 -6z"/>
<path d="M4146 3342 c-2 -4 4 -8 14 -8 10 0 16 4 14 8 -3 4 -9 8 -14 8 -5 0
-11 -4 -14 -8z"/>
<path d="M4354 3320 c0 -13 4 -16 10 -10 7 7 7 13 0 20 -6 6 -10 3 -10 -10z"/>
<path d="M4160 3300 c-9 -6 -10 -10 -3 -10 6 0 15 5 18 10 8 12 4 12 -15 0z"/>
<path d="M4193 3285 c0 -8 4 -12 9 -9 5 3 6 10 3 15 -9 13 -12 11 -12 -6z"/>
<path d="M4090 3279 c0 -5 5 -7 10 -4 6 3 10 8 10 11 0 2 -4 4 -10 4 -5 0 -10
-5 -10 -11z"/>
<path d="M4216 3273 c-6 -14 -5 -15 5 -6 7 7 10 15 7 18 -3 3 -9 -2 -12 -12z"/>
<path d="M4296 3273 c-6 -14 -5 -15 5 -6 7 7 10 15 7 18 -3 3 -9 -2 -12 -12z"/>
<path d="M4560 3280 c-12 -7 -10 -9 7 -7 12 0 19 5 17 9 -6 10 -6 10 -24 -2z"/>
<path d="M4150 3261 c0 -6 4 -12 8 -15 5 -3 9 1 9 9 0 8 -4 15 -9 15 -4 0 -8
-4 -8 -9z"/>
<path d="M4089 3243 c-13 -16 -12 -17 4 -4 9 7 17 15 17 17 0 8 -8 3 -21 -13z"/>
<path d="M4226 3238 c3 -5 10 -6 15 -3 13 9 11 12 -6 12 -8 0 -12 -4 -9 -9z"/>
<path d="M4259 3233 c-13 -16 -12 -17 4 -4 16 13 21 21 13 21 -2 0 -10 -8 -17
-17z"/>
<path d="M4293 3236 c-3 -6 -3 -8 2 -4 4 4 13 3 20 -2 8 -7 12 -5 12 3 0 16
-25 18 -34 3z"/>
<path d="M4526 3242 c-3 -5 1 -9 9 -9 8 0 12 4 9 9 -3 4 -7 8 -9 8 -2 0 -6 -4
-9 -8z"/>
<path d="M4473 3225 c0 -8 4 -12 9 -9 5 3 6 10 3 15 -9 13 -12 11 -12 -6z"/>
<path d="M4110 3219 c0 -5 5 -7 10 -4 6 3 10 8 10 11 0 2 -4 4 -10 4 -5 0 -10
-5 -10 -11z"/>
<path d="M4145 3220 c-3 -6 1 -7 9 -4 18 7 21 14 7 14 -6 0 -13 -4 -16 -10z"/>
<path d="M4186 3222 c-3 -5 1 -9 9 -9 8 0 15 4 15 9 0 4 -4 8 -9 8 -6 0 -12
-4 -15 -8z"/>
<path d="M4209 3163 c-13 -16 -12 -17 4 -4 16 13 21 21 13 21 -2 0 -10 -8 -17
-17z"/>
<path d="M4313 3166 c0 -15 22 -15 34 0 4 5 4 6 -1 2 -5 -4 -14 -3 -21 2 -8 7
-12 5 -12 -4z"/>
<path d="M4106 3158 c3 -5 10 -6 15 -3 13 9 11 12 -6 12 -8 0 -12 -4 -9 -9z"/>
<path d="M4136 3153 c-6 -14 -5 -15 5 -6 7 7 10 15 7 18 -3 3 -9 -2 -12 -12z"/>
<path d="M4170 3159 c0 -5 5 -7 10 -4 6 3 10 8 10 11 0 2 -4 4 -10 4 -5 0 -10
-5 -10 -11z"/>
<path d="M4230 3142 c0 -5 7 -9 15 -9 8 0 12 4 9 9 -3 4 -9 8 -15 8 -5 0 -9
-4 -9 -8z"/>
<path d="M4275 3140 c3 -5 8 -10 11 -10 2 0 4 5 4 10 0 6 -5 10 -11 10 -5 0
-7 -4 -4 -10z"/>
<path d="M4177 3133 c-10 -9 -9 -23 1 -23 5 0 9 7 9 15 0 17 -1 18 -10 8z"/>
<path d="M4075 3121 c-3 -5 -2 -12 3 -15 5 -3 9 1 9 9 0 17 -3 19 -12 6z"/>
<path d="M4136 3122 c-3 -5 1 -9 9 -9 8 0 12 4 9 9 -3 4 -7 8 -9 8 -2 0 -6 -4
-9 -8z"/>
<path d="M4229 3103 c-13 -16 -12 -17 4 -4 16 13 21 21 13 21 -2 0 -10 -8 -17
-17z"/>
<path d="M4146 3082 c-3 -5 1 -9 9 -9 8 0 15 4 15 9 0 4 -4 8 -9 8 -6 0 -12
-4 -15 -8z"/>
<path d="M4279 3073 c-13 -16 -12 -17 4 -4 16 13 21 21 13 21 -2 0 -10 -8 -17
-17z"/>
<path d="M4236 3062 c-3 -5 1 -9 9 -9 8 0 12 4 9 9 -3 4 -7 8 -9 8 -2 0 -6 -4
-9 -8z"/>
<path d="M4166 3038 c3 -5 10 -6 15 -3 13 9 11 12 -6 12 -8 0 -12 -4 -9 -9z"/>
<path d="M3504 3632 c23 -26 22 -26 30 -6 3 9 2 12 -5 9 -5 -4 -18 -1 -27 6
-13 11 -12 8 2 -9z"/>
<path d="M3585 3621 c-3 -5 -2 -12 3 -15 5 -3 9 1 9 9 0 17 -3 19 -12 6z"/>
<path d="M795 5080 c-3 -5 -1 -10 4 -10 6 0 11 5 11 10 0 6 -2 10 -4 10 -3 0
-8 -4 -11 -10z"/>
<path d="M1115 5080 c-3 -5 -1 -10 4 -10 6 0 11 5 11 10 0 6 -2 10 -4 10 -3 0
-8 -4 -11 -10z"/>
<path d="M4076 5033 c-6 -14 -5 -15 5 -6 7 7 10 15 7 18 -3 3 -9 -2 -12 -12z"/>
<path d="M3627 5019 c7 -7 15 -10 18 -7 3 3 -2 9 -12 12 -14 6 -15 5 -6 -5z"/>
<path d="M3593 5007 c0 -8 6 -14 14 -14 9 0 10 4 2 14 -6 7 -12 13 -14 13 -1
0 -2 -6 -2 -13z"/>
<path d="M3690 5001 c0 -6 4 -13 10 -16 6 -3 7 1 4 9 -7 18 -14 21 -14 7z"/>
<path d="M4239 5008 c-6 -20 -6 -39 0 -42 4 -3 7 6 7 20 0 20 -4 32 -7 22z"/>
<path d="M4290 4980 c0 -5 5 -10 11 -10 5 0 7 5 4 10 -3 6 -8 10 -11 10 -2 0
-4 -4 -4 -10z"/>
<path d="M3635 4961 c-3 -5 -2 -12 3 -15 5 -3 9 1 9 9 0 17 -3 19 -12 6z"/>
<path d="M3676 4958 c3 -5 10 -6 15 -3 13 9 11 12 -6 12 -8 0 -12 -4 -9 -9z"/>
<path d="M3555 4929 c-4 -6 -5 -12 -2 -15 2 -3 7 2 10 11 7 17 1 20 -8 4z"/>
<path d="M4405 4920 c10 -11 20 -20 23 -20 3 0 -3 9 -13 20 -10 11 -20 20 -23
20 -3 0 3 -9 13 -20z"/>
<path d="M3516 4918 c3 -5 10 -6 15 -3 13 9 11 12 -6 12 -8 0 -12 -4 -9 -9z"/>
<path d="M4406 4882 c-3 -5 1 -9 9 -9 8 0 12 4 9 9 -3 4 -7 8 -9 8 -2 0 -6 -4
-9 -8z"/>
<path d="M4473 4875 c0 -8 4 -12 9 -9 5 3 6 10 3 15 -9 13 -12 11 -12 -6z"/>
<path d="M3386 4858 c3 -4 9 -8 15 -8 5 0 9 4 9 8 0 5 -7 9 -15 9 -8 0 -12 -4
-9 -9z"/>
<path d="M4380 4866 c0 -2 8 -10 18 -17 15 -13 16 -12 3 4 -13 16 -21 21 -21
13z"/>
<path d="M3340 4846 c0 -2 8 -10 18 -17 15 -13 16 -12 3 4 -13 16 -21 21 -21
13z"/>
<path d="M3320 4800 c-8 -5 -10 -10 -5 -10 6 0 17 5 25 10 8 5 11 10 5 10 -5
0 -17 -5 -25 -10z"/>
<path d="M790 4760 c0 -5 5 -10 11 -10 5 0 7 5 4 10 -3 6 -8 10 -11 10 -2 0
-4 -4 -4 -10z"/>
<path d="M1115 4760 c-3 -5 -1 -10 4 -10 6 0 11 5 11 10 0 6 -2 10 -4 10 -3 0
-8 -4 -11 -10z"/>
<path d="M3154 4756 c1 -8 5 -18 8 -22 4 -3 5 1 4 10 -1 8 -5 18 -8 22 -4 3
-5 -1 -4 -10z"/>
<path d="M3245 4760 c-3 -6 1 -7 9 -4 18 7 21 14 7 14 -6 0 -13 -4 -16 -10z"/>
<path d="M4594 4756 c1 -8 5 -18 8 -22 4 -3 5 1 4 10 -1 8 -5 18 -8 22 -4 3
-5 -1 -4 -10z"/>
<path d="M3110 4746 c0 -2 7 -7 16 -10 8 -3 12 -2 9 4 -6 10 -25 14 -25 6z"/>
<path d="M3195 4731 c-3 -5 -2 -12 3 -15 5 -3 9 1 9 9 0 17 -3 19 -12 6z"/>
<path d="M3153 4673 c0 -9 4 -10 14 -2 7 6 13 12 13 14 0 1 -6 2 -13 2 -8 0
-14 -6 -14 -14z"/>
<path d="M3104 4662 c4 -3 14 -7 22 -8 9 -1 13 0 10 4 -4 3 -14 7 -22 8 -9 1
-13 0 -10 -4z"/>
<path d="M3050 4641 c0 -6 4 -13 10 -16 6 -3 7 1 4 9 -7 18 -14 21 -14 7z"/>
<path d="M4707 4619 c7 -7 15 -10 18 -7 3 3 -2 9 -12 12 -14 6 -15 5 -6 -5z"/>
<path d="M4754 4586 c1 -8 5 -18 8 -22 4 -3 5 1 4 10 -1 8 -5 18 -8 22 -4 3
-5 -1 -4 -10z"/>
<path d="M4790 4586 c0 -2 7 -7 16 -10 8 -3 12 -2 9 4 -6 10 -25 14 -25 6z"/>
<path d="M4840 4560 c-9 -6 -10 -10 -3 -10 6 0 15 5 18 10 8 12 4 12 -15 0z"/>
<path d="M2945 4480 c-3 -6 1 -7 9 -4 18 7 21 14 7 14 -6 0 -13 -4 -16 -10z"/>
<path d="M4920 4400 c-8 -5 -10 -10 -5 -10 6 0 17 5 25 10 8 5 11 10 5 10 -5
0 -17 -5 -25 -10z"/>
<path d="M4871 4387 c-8 -10 -7 -14 2 -14 8 0 14 6 14 14 0 7 -1 13 -2 13 -2
0 -8 -6 -14 -13z"/>
<path d="M2920 4365 c0 -2 6 -8 13 -14 10 -8 14 -7 14 2 0 8 -6 14 -14 14 -7
0 -13 -1 -13 -2z"/>
<path d="M4973 4295 c0 -8 4 -12 9 -9 5 3 6 10 3 15 -9 13 -12 11 -12 -6z"/>
<path d="M2856 4247 c3 -10 9 -15 12 -12 3 3 0 11 -7 18 -10 9 -11 8 -5 -6z"/>
<path d="M4955 4231 c-3 -5 -2 -12 3 -15 5 -3 9 1 9 9 0 17 -3 19 -12 6z"/>
<path d="M2790 4226 c0 -2 7 -7 16 -10 8 -3 12 -2 9 4 -6 10 -25 14 -25 6z"/>
<path d="M2810 4161 c0 -6 4 -12 8 -15 5 -3 9 1 9 9 0 8 -4 15 -9 15 -4 0 -8
-4 -8 -9z"/>
<path d="M4970 4161 c0 -6 4 -12 8 -15 5 -3 9 1 9 9 0 8 -4 15 -9 15 -4 0 -8
-4 -8 -9z"/>
<path d="M2830 4099 c0 -5 5 -7 10 -4 6 3 10 8 10 11 0 2 -4 4 -10 4 -5 0 -10
-5 -10 -11z"/>
<path d="M4955 4100 c3 -5 8 -10 11 -10 2 0 4 5 4 10 0 6 -5 10 -11 10 -5 0
-7 -4 -4 -10z"/>
<path d="M5026 3698 c3 -5 10 -6 15 -3 13 9 11 12 -6 12 -8 0 -12 -4 -9 -9z"/>
<path d="M4995 3691 c-3 -5 -2 -12 3 -15 5 -3 9 1 9 9 0 17 -3 19 -12 6z"/>
<path d="M2790 3680 c0 -4 7 -7 15 -6 23 3 26 12 5 13 -11 1 -20 -2 -20 -7z"/>
<path d="M4970 3681 c0 -6 4 -13 10 -16 6 -3 7 1 4 9 -7 18 -14 21 -14 7z"/>
<path d="M4966 3602 c-3 -5 1 -9 9 -9 8 0 12 4 9 9 -3 4 -7 8 -9 8 -2 0 -6 -4
-9 -8z"/>
<path d="M4940 3586 c0 -2 8 -10 18 -17 15 -13 16 -12 3 4 -13 16 -21 21 -21
13z"/>
<path d="M4919 3578 c-5 -18 -6 -38 -1 -34 7 8 12 36 6 36 -2 0 -4 -1 -5 -2z"/>
<path d="M4953 3533 c0 -9 4 -10 14 -2 7 6 13 12 13 14 0 1 -6 2 -13 2 -8 0
-14 -6 -14 -14z"/>
<path d="M4993 3525 c0 -8 4 -12 9 -9 5 3 6 10 3 15 -9 13 -12 11 -12 -6z"/>
<path d="M4900 3520 c-8 -5 -10 -10 -5 -10 6 0 17 5 25 10 8 5 11 10 5 10 -5
0 -17 -5 -25 -10z"/>
<path d="M4950 3476 c0 -2 8 -10 18 -17 15 -13 16 -12 3 4 -13 16 -21 21 -21
13z"/>
<path d="M2835 3460 c-3 -5 -1 -10 4 -10 6 0 11 5 11 10 0 6 -2 10 -4 10 -3 0
-8 -4 -11 -10z"/>
<path d="M4875 3451 c-3 -5 -2 -12 3 -15 5 -3 9 1 9 9 0 17 -3 19 -12 6z"/>
<path d="M4935 3440 c3 -5 8 -10 11 -10 2 0 4 5 4 10 0 6 -5 10 -11 10 -5 0
-7 -4 -4 -10z"/>
<path d="M2956 3422 c-3 -5 1 -9 9 -9 8 0 12 4 9 9 -3 4 -7 8 -9 8 -2 0 -6 -4
-9 -8z"/>
<path d="M2854 3409 c-3 -6 -2 -15 3 -20 5 -5 9 -1 9 11 0 23 -2 24 -12 9z"/>
<path d="M4862 3404 c10 -10 20 -16 22 -13 3 3 -5 11 -17 18 -21 13 -21 12 -5
-5z"/>
<path d="M4826 3382 c-3 -5 1 -9 9 -9 8 0 15 4 15 9 0 4 -4 8 -9 8 -6 0 -12
-4 -15 -8z"/>
<path d="M4910 3379 c0 -5 5 -7 10 -4 6 3 10 8 10 11 0 2 -4 4 -10 4 -5 0 -10
-5 -10 -11z"/>
<path d="M2900 3366 c0 -2 8 -10 18 -17 15 -13 16 -12 3 4 -13 16 -21 21 -21
13z"/>
<path d="M2936 3358 c3 -4 11 -5 19 -1 21 7 19 12 -4 10 -11 0 -18 -5 -15 -9z"/>
<path d="M4896 3327 c3 -10 9 -15 12 -12 3 3 0 11 -7 18 -10 9 -11 8 -5 -6z"/>
<path d="M2920 3326 c0 -2 8 -10 18 -17 15 -13 16 -12 3 4 -13 16 -21 21 -21
13z"/>
<path d="M3006 3322 c-3 -5 1 -9 9 -9 8 0 12 4 9 9 -3 4 -7 8 -9 8 -2 0 -6 -4
-9 -8z"/>
<path d="M4805 3319 c-3 -4 2 -6 10 -5 21 3 28 13 10 13 -9 0 -18 -4 -20 -8z"/>
<path d="M4827 3279 c7 -7 15 -10 18 -7 3 3 -2 9 -12 12 -14 6 -15 5 -6 -5z"/>
<path d="M4810 3241 c0 -6 4 -13 10 -16 6 -3 7 1 4 9 -7 18 -14 21 -14 7z"/>
<path d="M4836 3238 c3 -5 10 -6 15 -3 13 9 11 12 -6 12 -8 0 -12 -4 -9 -9z"/>
<path d="M4810 3200 c0 -5 5 -10 11 -10 5 0 7 5 4 10 -3 6 -8 10 -11 10 -2 0
-4 -4 -4 -10z"/>
<path d="M3039 3188 c-7 -23 -4 -35 7 -35 9 0 11 4 4 12 -5 7 -7 15 -3 18 3 4
3 7 0 7 -4 0 -7 -1 -8 -2z"/>
<path d="M4686 3078 c3 -5 10 -6 15 -3 13 9 11 12 -6 12 -8 0 -12 -4 -9 -9z"/>
<path d="M4536 3047 c3 -10 9 -15 12 -12 3 3 0 11 -7 18 -10 9 -11 8 -5 -6z"/>
<path d="M3150 3036 c7 -7 13 -7 20 0 6 6 3 10 -10 10 -13 0 -16 -4 -10 -10z"/>
<path d="M4526 3001 c8 -9 43 -11 48 -3 2 4 -9 7 -25 7 -15 1 -26 -1 -23 -4z"/>
<path d="M4473 2985 c0 -8 4 -12 9 -9 5 3 6 10 3 15 -9 13 -12 11 -12 -6z"/>
<path d="M3334 2958 c-4 -7 -4 -10 1 -6 4 4 15 2 24 -5 14 -11 14 -10 2 6 -16
20 -18 21 -27 5z"/>
<path d="M4536 2958 c3 -5 10 -6 15 -3 13 9 11 12 -6 12 -8 0 -12 -4 -9 -9z"/>
<path d="M4440 2940 c-9 -6 -10 -10 -3 -10 6 0 15 5 18 10 8 12 4 12 -15 0z"/>
<path d="M4313 2925 c0 -8 4 -12 9 -9 5 3 6 10 3 15 -9 13 -12 11 -12 -6z"/>
<path d="M3319 2913 c-13 -16 -12 -17 4 -4 16 13 21 21 13 21 -2 0 -10 -8 -17
-17z"/>
<path d="M3350 2920 c0 -5 5 -10 11 -10 5 0 7 5 4 10 -3 6 -8 10 -11 10 -2 0
-4 -4 -4 -10z"/>
<path d="M3496 2918 c3 -5 10 -6 15 -3 13 9 11 12 -6 12 -8 0 -12 -4 -9 -9z"/>
<path d="M3530 2920 c0 -5 5 -10 11 -10 5 0 7 5 4 10 -3 6 -8 10 -11 10 -2 0
-4 -4 -4 -10z"/>
<path d="M3416 2887 c3 -10 9 -15 12 -12 3 3 0 11 -7 18 -10 9 -11 8 -5 -6z"/>
<path d="M3496 2887 c3 -10 9 -15 12 -12 3 3 0 11 -7 18 -10 9 -11 8 -5 -6z"/>
<path d="M4296 2878 c3 -5 10 -6 15 -3 13 9 11 12 -6 12 -8 0 -12 -4 -9 -9z"/>
<path d="M3393 2865 c0 -8 4 -12 9 -9 5 3 6 10 3 15 -9 13 -12 11 -12 -6z"/>
<path d="M4115 2861 c-3 -5 -2 -12 3 -15 5 -3 9 1 9 9 0 17 -3 19 -12 6z"/>
<path d="M4193 2855 c0 -8 4 -12 9 -9 5 3 6 10 3 15 -9 13 -12 11 -12 -6z"/>
<path d="M4227 2859 c7 -7 15 -10 18 -7 3 3 -2 9 -12 12 -14 6 -15 5 -6 -5z"/>
<path d="M4355 2849 c-4 -6 -5 -12 -2 -15 2 -3 7 2 10 11 7 17 1 20 -8 4z"/>
<path d="M3475 2840 c-3 -5 -1 -10 4 -10 6 0 11 5 11 10 0 6 -2 10 -4 10 -3 0
-8 -4 -11 -10z"/>
<path d="M4319 2833 c-13 -16 -12 -17 4 -4 16 13 21 21 13 21 -2 0 -10 -8 -17
-17z"/>
<path d="M4073 2825 c0 -8 4 -12 9 -9 5 3 6 10 3 15 -9 13 -12 11 -12 -6z"/>
<path d="M4235 2831 c-3 -5 -2 -12 3 -15 5 -3 9 1 9 9 0 17 -3 19 -12 6z"/>
<path d="M3673 2823 c4 -3 1 -13 -6 -22 -11 -14 -10 -14 5 -2 16 12 16 31 1
31 -4 0 -3 -3 0 -7z"/>
<path d="M5435 1080 c-3 -5 -1 -10 4 -10 6 0 11 5 11 10 0 6 -2 10 -4 10 -3 0
-8 -4 -11 -10z"/>
</g>
</svg>
